<svg xmlns="http://www.w3.org/2000/svg" xmlns:xlink="http://www.w3.org/1999/xlink" width="100" zoomAndPan="magnify" viewBox="0 0 375 374.999991" height="100" preserveAspectRatio="xMidYMid meet" version="1.0"><defs><g/><clipPath id="89b0bc99ca"><path d="M 31.035156 31.035156 L 337.785156 31.035156 L 337.785156 337.785156 L 31.035156 337.785156 Z M 31.035156 31.035156 " clip-rule="nonzero"/></clipPath></defs><g clip-path="url(#89b0bc99ca)"><path fill="#292929" d="M 184.265625 31.035156 C 99.746094 31.035156 31.035156 99.804688 31.035156 184.265625 C 31.035156 268.785156 99.746094 337.492188 184.265625 337.492188 C 268.726562 337.492188 337.492188 268.785156 337.492188 184.265625 C 337.492188 99.804688 268.726562 31.035156 184.265625 31.035156 Z M 184.265625 325.542969 C 106.363281 325.542969 42.988281 262.167969 42.988281 184.265625 C 42.988281 106.363281 106.363281 42.988281 184.265625 42.988281 C 262.167969 42.988281 325.542969 106.363281 325.542969 184.265625 C 325.542969 262.167969 262.167969 325.542969 184.265625 325.542969 Z M 184.265625 325.542969 " fill-opacity="1" fill-rule="nonzero"/></g><path fill="#292929" d="M 184.265625 50.957031 C 110.777344 50.957031 50.957031 110.777344 50.957031 184.265625 C 50.957031 257.753906 110.777344 317.574219 184.265625 317.574219 C 257.753906 317.574219 317.574219 257.753906 317.574219 184.265625 C 317.574219 110.777344 257.753906 50.957031 184.265625 50.957031 Z M 184.265625 50.957031 " fill-opacity="1" fill-rule="nonzero"/><g fill="#ffffff" fill-opacity="1"><g transform="translate(86.002999, 169.695121)"><g><path d="M 0.636719 0 L 13.339844 0 L 13.339844 -12.621094 C 14.695312 -12.621094 13.890625 -12.664062 14.398438 -12.664062 C 22.488281 -12.789062 27.488281 -19.695312 27.488281 -28.207031 C 27.488281 -35.363281 22.871094 -42.3125 13.511719 -42.3125 L 0.636719 -42.3125 Z M 13.339844 -29.648438 C 14.1875 -29.648438 14.949219 -28.886719 14.949219 -26.683594 C 14.949219 -24.480469 14.144531 -23.335938 13.339844 -23.335938 Z M 13.339844 -29.648438 "/></g></g></g><g fill="#ffffff" fill-opacity="1"><g transform="translate(115.394891, 169.695121)"><g><path d="M 0.636719 0 L 13.339844 0 L 13.339844 -16.007812 L 18.464844 0 L 30.832031 0.0429688 L 24.566406 -18.59375 C 26.683594 -19.949219 29.351562 -22.996094 29.351562 -29.054688 C 29.351562 -38.964844 21.175781 -42.3125 15.542969 -42.3125 L 0.636719 -42.3125 Z M 14.398438 -30.453125 C 17.324219 -30.324219 17.070312 -24.3125 14.359375 -24.351562 L 13.339844 -24.351562 L 13.339844 -30.496094 Z M 14.398438 -30.453125 "/></g></g></g><g fill="#ffffff" fill-opacity="1"><g transform="translate(146.60789, 169.695121)"><g><path d="M 15.585938 0.636719 C 27.316406 0.636719 30.535156 -8.089844 30.535156 -21.21875 C 30.535156 -34.265625 27.316406 -42.988281 15.585938 -42.988281 C 3.855469 -42.988281 0.636719 -34.265625 0.636719 -21.21875 C 0.636719 -8.089844 3.855469 0.636719 15.585938 0.636719 Z M 15.585938 -30.113281 C 17.324219 -30.113281 17.832031 -26.597656 17.875 -20.753906 C 17.914062 -15.628906 17.324219 -12.199219 15.585938 -12.199219 C 13.847656 -12.199219 13.339844 -15.628906 13.339844 -20.753906 C 13.339844 -26.597656 13.847656 -30.070312 15.585938 -30.113281 Z M 15.585938 -30.113281 "/></g></g></g><g fill="#ffffff" fill-opacity="1"><g transform="translate(179.049077, 169.695121)"><g><path d="M 0.636719 -29.691406 L 8.046875 -29.691406 L 8.046875 0 L 20.753906 0 L 20.753906 -29.691406 L 28.164062 -29.691406 L 28.164062 -42.351562 L 0.636719 -42.351562 Z M 0.636719 -29.691406 "/></g></g></g><g fill="#ffffff" fill-opacity="1"><g transform="translate(209.118596, 169.695121)"><g><path d="M 25.75 0 L 25.75 -12.707031 L 13.339844 -12.707031 L 13.339844 -14.78125 L 23.210938 -14.78125 L 23.210938 -27.488281 L 13.339844 -27.488281 L 13.339844 -29.605469 L 25.75 -29.605469 L 25.75 -42.3125 L 0.636719 -42.3125 L 0.636719 0 Z M 25.75 0 "/></g></g></g><g fill="#ffffff" fill-opacity="1"><g transform="translate(236.774095, 169.695121)"><g><path d="M 0.636719 0 L 13.339844 0 L 13.339844 -42.3125 L 0.636719 -42.3125 Z M 0.636719 0 "/></g></g></g><g fill="#ffffff" fill-opacity="1"><g transform="translate(252.020682, 169.695121)"><g><path d="M 0.636719 -42.3125 L 0.636719 0 L 11.222656 0 L 11.222656 -16.222656 L 18.421875 0 L 29.054688 0 L 29.054688 -42.3125 L 18.464844 -42.3125 L 18.464844 -25.921875 L 11.179688 -42.3125 Z M 0.636719 -42.3125 "/></g></g></g><g fill="#ffffff" fill-opacity="1"><g transform="translate(78.139742, 238.492604)"><g><path d="M 0.921875 -61.523438 L 0.921875 0 L 19.398438 0 L 19.398438 -21.492188 L 23.894531 -21.492188 L 23.894531 0 L 42.371094 0 L 42.371094 -61.523438 L 23.894531 -61.523438 L 23.894531 -39.96875 L 19.398438 -39.96875 L 19.398438 -61.523438 Z M 0.921875 -61.523438 "/></g></g></g><g fill="#ffffff" fill-opacity="1"><g transform="translate(121.430747, 238.492604)"><g><path d="M 22.664062 0.921875 C 39.722656 0.921875 44.402344 -11.761719 44.402344 -30.855469 C 44.402344 -49.824219 39.722656 -62.507812 22.664062 -62.507812 C 5.605469 -62.507812 0.921875 -49.824219 0.921875 -30.855469 C 0.921875 -11.761719 5.605469 0.921875 22.664062 0.921875 Z M 22.664062 -43.789062 C 25.1875 -43.789062 25.925781 -38.675781 25.988281 -30.175781 C 26.050781 -22.726562 25.1875 -17.738281 22.664062 -17.738281 C 20.136719 -17.738281 19.398438 -22.726562 19.398438 -30.175781 C 19.398438 -38.675781 20.136719 -43.726562 22.664062 -43.789062 Z M 22.664062 -43.789062 "/></g></g></g><g fill="#ffffff" fill-opacity="1"><g transform="translate(166.753911, 238.492604)"><g><path d="M 0.921875 -61.585938 L 0.921875 -16.503906 C 0.921875 -6.464844 7.757812 0.921875 21.617188 0.921875 C 35.71875 0.921875 42.554688 -6.464844 42.554688 -16.503906 L 42.554688 -61.585938 L 24.078125 -61.585938 L 24.078125 -24.511719 C 24.078125 -19.953125 23.894531 -17.613281 21.738281 -17.613281 C 19.585938 -17.550781 19.398438 -19.953125 19.398438 -24.511719 L 19.398438 -61.585938 Z M 0.921875 -61.585938 "/></g></g></g><g fill="#ffffff" fill-opacity="1"><g transform="translate(210.229659, 238.492604)"><g><path d="M 15.394531 -21.492188 C 15.394531 -19.152344 13.179688 -18.476562 8.867188 -18.476562 L 1.785156 -18.476562 L 1.785156 0 L 20.199219 0 C 30.484375 0 36.953125 -7.574219 36.953125 -18.230469 C 36.953125 -34.363281 23.21875 -33.808594 23.21875 -39.785156 C 23.21875 -43.234375 26.542969 -43.109375 29.007812 -43.109375 L 33.933594 -43.109375 L 33.933594 -61.585938 L 15.027344 -61.585938 C 7.820312 -61.585938 0.921875 -56.164062 0.921875 -45.882812 C 0.921875 -30.792969 15.394531 -27.46875 15.394531 -21.492188 Z M 15.394531 -21.492188 "/></g></g></g><g fill="#ffffff" fill-opacity="1"><g transform="translate(248.101596, 238.492604)"><g><path d="M 37.445312 0 L 37.445312 -18.476562 L 19.398438 -18.476562 L 19.398438 -21.492188 L 33.75 -21.492188 L 33.75 -39.96875 L 19.398438 -39.96875 L 19.398438 -43.046875 L 37.445312 -43.046875 L 37.445312 -61.523438 L 0.921875 -61.523438 L 0.921875 0 Z M 37.445312 0 "/></g></g></g><g fill="#ffffff" fill-opacity="1"><g transform="translate(155.222733, 269.13971)"><g><path d="M 6.75 -12.75 C 8.113281 -12.75 9.164062 -12.40625 9.90625 -11.71875 C 10.65625 -11.039062 11.03125 -10.066406 11.03125 -8.796875 C 11.03125 -7.816406 10.804688 -6.953125 10.359375 -6.203125 C 9.910156 -5.460938 9.28125 -4.890625 8.46875 -4.484375 C 7.65625 -4.078125 6.707031 -3.875 5.625 -3.875 L 4.484375 -3.875 L 4.59375 0 L 1.375 0 L 1.5625 -3.765625 L 1.375 -12.734375 Z M 6.203125 -6.171875 C 6.703125 -6.347656 7.070312 -6.625 7.3125 -7 C 7.550781 -7.375 7.671875 -7.867188 7.671875 -8.484375 C 7.671875 -9.140625 7.507812 -9.625 7.1875 -9.9375 C 6.863281 -10.257812 6.363281 -10.429688 5.6875 -10.453125 L 4.625 -10.40625 L 4.515625 -6.25 Z M 6.203125 -6.171875 "/></g></g></g><g fill="#ffffff" fill-opacity="1"><g transform="translate(167.458377, 269.13971)"><g><path d="M 8.78125 -5.03125 C 9.875 -3.332031 10.859375 -1.90625 11.734375 -0.75 L 11.703125 -0.390625 C 10.703125 -0.0664062 9.644531 0.132812 8.53125 0.21875 L 8.203125 -0.046875 C 7.421875 -1.515625 6.738281 -2.859375 6.15625 -4.078125 L 4.484375 -4.078125 L 4.59375 0 L 1.375 0 L 1.5625 -3.765625 L 1.375 -12.734375 L 6.75 -12.75 C 8.132812 -12.75 9.195312 -12.414062 9.9375 -11.75 C 10.675781 -11.082031 11.046875 -10.132812 11.046875 -8.90625 C 11.046875 -8.125 10.847656 -7.394531 10.453125 -6.71875 C 10.066406 -6.050781 9.507812 -5.488281 8.78125 -5.03125 Z M 4.53125 -6.5 L 6.25 -6.40625 C 6.738281 -6.59375 7.097656 -6.863281 7.328125 -7.21875 C 7.554688 -7.570312 7.671875 -8.035156 7.671875 -8.609375 C 7.671875 -9.222656 7.507812 -9.675781 7.1875 -9.96875 C 6.863281 -10.269531 6.363281 -10.429688 5.6875 -10.453125 L 4.625 -10.40625 Z M 4.53125 -6.5 "/></g></g></g><g fill="#ffffff" fill-opacity="1"><g transform="translate(180.424201, 269.13971)"><g><path d="M 6.625 -12.921875 C 8.445312 -12.921875 9.847656 -12.378906 10.828125 -11.296875 C 11.816406 -10.210938 12.3125 -8.671875 12.3125 -6.671875 C 12.3125 -4.484375 11.769531 -2.785156 10.6875 -1.578125 C 9.613281 -0.378906 8.097656 0.21875 6.140625 0.21875 C 4.335938 0.21875 2.941406 -0.335938 1.953125 -1.453125 C 0.960938 -2.566406 0.46875 -4.140625 0.46875 -6.171875 C 0.46875 -8.328125 1.003906 -9.988281 2.078125 -11.15625 C 3.148438 -12.332031 4.664062 -12.921875 6.625 -12.921875 Z M 6.359375 -10.359375 C 5.734375 -10.359375 5.238281 -10.234375 4.875 -9.984375 C 4.507812 -9.742188 4.238281 -9.351562 4.0625 -8.8125 C 3.894531 -8.269531 3.8125 -7.53125 3.8125 -6.59375 C 3.8125 -5.46875 3.894531 -4.585938 4.0625 -3.953125 C 4.238281 -3.316406 4.515625 -2.859375 4.890625 -2.578125 C 5.265625 -2.304688 5.769531 -2.171875 6.40625 -2.171875 C 7.039062 -2.171875 7.539062 -2.289062 7.90625 -2.53125 C 8.28125 -2.78125 8.546875 -3.179688 8.703125 -3.734375 C 8.867188 -4.285156 8.953125 -5.039062 8.953125 -6 C 8.953125 -7.101562 8.867188 -7.96875 8.703125 -8.59375 C 8.535156 -9.226562 8.265625 -9.679688 7.890625 -9.953125 C 7.523438 -10.222656 7.015625 -10.359375 6.359375 -10.359375 Z M 6.359375 -10.359375 "/></g></g></g><g fill="#ffffff" fill-opacity="1"><g transform="translate(194.179403, 269.13971)"><g><path d="M 7.71875 0 L 3.875 0 L 0.140625 -12.734375 L 3.390625 -12.734375 L 3.734375 -10.875 L 5.765625 -2.921875 L 5.953125 -2.921875 L 8.328125 -10.703125 L 8.6875 -12.734375 L 11.828125 -12.734375 Z M 7.71875 0 "/></g></g></g><g fill="#ffffff" fill-opacity="1"><g transform="translate(206.987356, 269.13971)"><g><path d="M 6.625 -12.921875 C 8.445312 -12.921875 9.847656 -12.378906 10.828125 -11.296875 C 11.816406 -10.210938 12.3125 -8.671875 12.3125 -6.671875 C 12.3125 -4.484375 11.769531 -2.785156 10.6875 -1.578125 C 9.613281 -0.378906 8.097656 0.21875 6.140625 0.21875 C 4.335938 0.21875 2.941406 -0.335938 1.953125 -1.453125 C 0.960938 -2.566406 0.46875 -4.140625 0.46875 -6.171875 C 0.46875 -8.328125 1.003906 -9.988281 2.078125 -11.15625 C 3.148438 -12.332031 4.664062 -12.921875 6.625 -12.921875 Z M 6.359375 -10.359375 C 5.734375 -10.359375 5.238281 -10.234375 4.875 -9.984375 C 4.507812 -9.742188 4.238281 -9.351562 4.0625 -8.8125 C 3.894531 -8.269531 3.8125 -7.53125 3.8125 -6.59375 C 3.8125 -5.46875 3.894531 -4.585938 4.0625 -3.953125 C 4.238281 -3.316406 4.515625 -2.859375 4.890625 -2.578125 C 5.265625 -2.304688 5.769531 -2.171875 6.40625 -2.171875 C 7.039062 -2.171875 7.539062 -2.289062 7.90625 -2.53125 C 8.28125 -2.78125 8.546875 -3.179688 8.703125 -3.734375 C 8.867188 -4.285156 8.953125 -5.039062 8.953125 -6 C 8.953125 -7.101562 8.867188 -7.96875 8.703125 -8.59375 C 8.535156 -9.226562 8.265625 -9.679688 7.890625 -9.953125 C 7.523438 -10.222656 7.015625 -10.359375 6.359375 -10.359375 Z M 6.359375 -10.359375 "/></g></g></g></svg>